<svg xmlns="http://www.w3.org/2000/svg" xmlns:xlink="http://www.w3.org/1999/xlink" version="1.1" x="0px" y="0px" width="220.149px" height="167.465px" viewBox="0 0 220.149 167.465" enable-background="new 0 0 220.149 167.465" xml:space="preserve"><style>.style0{fill:	#F04E5E;}</style><path d="M220.004 73.917c-0.197-0.325-0.558-0.511-0.941-0.477l-34.923 3.05l6.045-54.069 c0.036-0.326-0.09-0.649-0.336-0.864c-0.247-0.216-0.586-0.298-0.901-0.217l-59.287 14.882L100.314 1.843l-0.006 0 c-0.078-0.092-0.167-0.174-0.278-0.234c-0.363-0.199-0.812-0.15-1.128 0.12L69.737 26.746l-38.951-6.372 c-0.417-0.064-0.834 0.134-1.038 0.507c-0.11 0.2-0.14 0.425-0.104 0.64l-0.006 0.001l5.67 34.75L0.349 86.2 c-0.414 0.355-0.467 0.976-0.12 1.396l31.364 37.979l8.131 35.607c0.104 0.5 0.5 0.8 1 0.8 c0.022 0 0.046-0.001 0.069-0.002l51.586-3.529c0.24-0.017 0.457-0.125 0.624-0.287l0.006 0.006l31.519-30.689l35.545 39.6 c0.193 0.2 0.5 0.3 0.7 0.332c0.158 0 0.317-0.038 0.466-0.115c0.159-0.083 0.275-0.212 0.367-0.356l0.012 0 l58.357-92.027C220.198 74.7 220.2 74.2 220 73.917z M3.259 88.173l37.278 2.661l-8.49 32.199L3.259 88.173z M128.953 39.673l9.907 40.771L90.809 84.64L128.953 39.673z M89.914 82.603l6.573-49.456l31.067 5.083L89.914 82.603z M87.769 83.562L52.856 44.645l41.586-11.292L87.769 83.562z M90.555 86.67l48.099-4.201l-14.49 41.665L90.555 86.67z M120.73 123.303L45.81 90.577l42.253-3.69L120.73 123.303z M131.44 41.44l30.802 36.961l-21.365 1.866L131.44 41.44z M132.286 39.33l43.376 11.768l-11.463 26.528L132.286 39.33z M176.463 49.243l-43.478-11.794l54.482-13.675L176.463 49.243z M96.751 31.164l3.498-26.316l26.677 31.253L96.751 31.164z M55.046 41.978l15.287-13.11l20.589 3.368L55.046 41.978z M86.394 85.025l-43.743 3.82l-5.188-31.788l13.475-11.556L86.394 85.025z M42.252 92.18l46.516 62.262l-55.083-29.775L42.252 92.2 z M92.406 155.969L44.877 92.352l77.911 34.032L92.406 155.969z M139.936 84.872l7.094 29.193l-20.741 10.045L139.936 84.872z M141.353 82.233l22.448-1.96l15.239 18.287l-30.171 14.612L141.353 82.233z M166.228 80.061l15.652-1.367l-1.986 17.8 L166.228 80.061z M179.032 100.786l-18.148 61.816l-11.528-47.441L179.032 100.786z M181.482 99.545l34.427-21.865l-52.153 82.2 L181.482 99.545z M215.155 75.789l-33.301 21.15l2.06-18.422L215.155 75.789z M166.191 78.057l21.262-49.205l-5.346 47.8 L166.191 78.057z M98.217 4.955l-3.44 25.885l-22.459-3.674L98.217 4.955z M67.752 28.447L51.12 42.709L33.264 22.805L67.752 28.4 z M32.162 24.57l17.44 19.442L37.086 54.746L32.162 24.57z M40.622 88.834l-37.124-2.65l32.188-27.603L40.622 88.834z M33.984 127.102l54.79 29.616l-47.288 3.235L33.984 127.102z M126.182 126.385l21.331-10.332l11.368 46.783L126.182 126.385z" class="style0"/></svg>